<svg id="Layer_1" data-name="Layer 1" xmlns="http://www.w3.org/2000/svg" viewBox="0 0 1080 1080"><defs><style>.cls-1{fill:#d62b44;}.cls-2{fill:#e0193b;}</style></defs><path class="cls-1" d="M634.92,492.19a8.16,8.16,0,0,1-7.95,5.75,8.43,8.43,0,1,1,0-16.85,8.29,8.29,0,0,1,8,5.84h-3.45a5,5,0,0,0-4.54-3,5.56,5.56,0,0,0,0,11.1,5.11,5.11,0,0,0,4.52-2.88Z"/><path class="cls-1" d="M640.27,492.57a3.3,3.3,0,0,0,3.49,3,3.1,3.1,0,0,0,2.89-1.62h3a6.77,6.77,0,0,1-2.44,3,5.91,5.91,0,0,1-3.44,1.06,6.4,6.4,0,0,1,0-12.79,6.16,6.16,0,0,1,4.5,1.84,6.51,6.51,0,0,1,1.78,5.51Zm6.87-2.2a3.33,3.33,0,0,0-3.43-2.72,3.27,3.27,0,0,0-3.4,2.72Z"/><path class="cls-1" d="M653.26,485.59H656c0,.53,0,1,0,1.6a3.92,3.92,0,0,1,3.75-2c3.93,0,4.67,3,4.67,5.15v7.26h-2.87V491.1c0-1.8-.59-3.18-2.61-3.18s-2.75,1.38-2.75,3.07v6.64h-2.87Z"/><path class="cls-1" d="M669.06,487.81h-2v-2.22h2V481.4h2.87v4.19H674v2.22h-2.07v9.82h-2.87Z"/><path class="cls-1" d="M676.74,485.59h2.72v1.58a3.43,3.43,0,0,1,3.33-1.95v2.89h-.13c-2,0-3,.95-3,3v6.49h-2.87Z"/><path class="cls-1" d="M684.31,491.58a6.45,6.45,0,1,1,6.45,6.41,6.26,6.26,0,0,1-6.45-6.41Zm2.87,0a3.57,3.57,0,1,0,3.58-3.7,3.57,3.57,0,0,0-3.58,3.7Z"/><path class="cls-1" d="M720.56,497.63h-2.75V495.9a4.39,4.39,0,0,1-4.12,2.11c-3.71,0-6.1-2.9-6.1-6.41a6,6,0,0,1,6-6.38,4.7,4.7,0,0,1,4,1.93V481.4h2.88Zm-10.1-6a3.59,3.59,0,0,0,3.69,3.71,3.78,3.78,0,0,0,2.68-1.1,3.8,3.8,0,0,0-.05-5.26,3.66,3.66,0,0,0-2.61-1.06,3.6,3.6,0,0,0-3.71,3.69Z"/><path class="cls-1" d="M726.66,492.57a3.3,3.3,0,0,0,3.48,3,3.11,3.11,0,0,0,2.9-1.62h3a6.75,6.75,0,0,1-2.43,3,5.94,5.94,0,0,1-3.45,1.06,6.4,6.4,0,0,1,0-12.79,6.16,6.16,0,0,1,4.5,1.84,6.5,6.5,0,0,1,1.77,5.51Zm6.86-2.2a3.31,3.31,0,0,0-3.42-2.72,3.26,3.26,0,0,0-3.4,2.72Z"/><path class="cls-1" d="M747.46,481.4h3.27v16.23h-3.27Z"/><path class="cls-1" d="M754.76,485.59h2.7c0,.53,0,1,0,1.6a3.93,3.93,0,0,1,3.75-2c3.93,0,4.68,3,4.68,5.15v7.26H763V491.1c0-1.8-.59-3.18-2.61-3.18s-2.74,1.38-2.74,3.07v6.64h-2.88Z"/><path class="cls-1" d="M775.08,497.63h-2.81l-4.47-12h3l2.9,8.42,2.89-8.42h3Z"/><path class="cls-1" d="M783.84,492.57a3.3,3.3,0,0,0,3.49,3,3.11,3.11,0,0,0,2.89-1.62h3a6.75,6.75,0,0,1-2.43,3A5.94,5.94,0,0,1,787.3,498a6.4,6.4,0,0,1,0-12.79,6.16,6.16,0,0,1,4.5,1.84,6.47,6.47,0,0,1,1.77,5.51Zm6.86-2.2a3.31,3.31,0,0,0-3.42-2.72,3.26,3.26,0,0,0-3.4,2.72Z"/><path class="cls-1" d="M802.05,488.84a1.47,1.47,0,0,0-2.9-.09c0,.77.9,1.18,2,1.51,1.93.53,4,1.1,4,3.69s-2,4.06-4.56,4.06c-1.87,0-4.39-1-4.61-3.89h2.87a1.68,1.68,0,0,0,1.78,1.56,1.51,1.51,0,0,0,1.65-1.4c0-1-.9-1.32-3.12-2.09-1.62-.5-2.94-1.4-3-3.13,0-2.37,2-3.84,4.32-3.84,1.62,0,4,.72,4.28,3.62Z"/><path class="cls-1" d="M809.27,487.81h-2v-2.22h2V481.4h2.87v4.19h2.06v2.22h-2.06v9.82h-2.87Z"/><path class="cls-1" d="M817,481.4h2.87V484H817Zm0,4.19h2.87v12H817Z"/><path class="cls-1" d="M836.08,496.21a6.7,6.7,0,0,1-1.12,4.25,6.87,6.87,0,0,1-5.53,2.48c-3.75,0-5.55-2.23-6-4.1h3.34a2.66,2.66,0,0,0,1.25,1.23,3.44,3.44,0,0,0,1.58.42,3.48,3.48,0,0,0,3.57-3.62v-1a4.29,4.29,0,0,1-3.9,2.15,6.39,6.39,0,0,1,0-12.77,4.44,4.44,0,0,1,3.9,2v-1.62h2.9ZM826,491.6a3.56,3.56,0,0,0,3.6,3.71,3.41,3.41,0,0,0,2.56-1,3.73,3.73,0,0,0,1-2.57,4.08,4.08,0,0,0-.88-2.59,3.31,3.31,0,0,0-2.72-1.2,3.57,3.57,0,0,0-3.6,3.66Z"/><path class="cls-1" d="M852.38,497.63h-2.87V495.9a4.48,4.48,0,0,1-4.06,2.11c-3.86,0-6.12-3-6.12-6.41a6.09,6.09,0,0,1,6.12-6.38,4.5,4.5,0,0,1,4.06,2.13v-1.76h2.87Zm-10.18-6a3.62,3.62,0,0,0,3.67,3.66,3.4,3.4,0,0,0,3.2-1.93,4.18,4.18,0,0,0,.46-1.69,3.81,3.81,0,0,0-.33-1.69,3.53,3.53,0,0,0-3.36-2.13,3.63,3.63,0,0,0-3.64,3.76Z"/><path class="cls-1" d="M868.31,493.25a6.44,6.44,0,1,1,0-3.18h-2.94a3.36,3.36,0,0,0-3.24-2.18,3.41,3.41,0,0,0-2.57,1,3.93,3.93,0,0,0-1,2.68,3.52,3.52,0,0,0,3.56,3.71,3.41,3.41,0,0,0,3.24-2.06Z"/><path class="cls-1" d="M871.56,481.4h2.88V484h-2.88Zm0,4.19h2.88v12h-2.88Z"/><path class="cls-1" d="M877.73,491.58a6.45,6.45,0,1,1,6.45,6.41,6.26,6.26,0,0,1-6.45-6.41Zm2.87,0a3.57,3.57,0,1,0,3.58-3.7,3.57,3.57,0,0,0-3.58,3.7Z"/><path class="cls-1" d="M893.94,485.59h2.7c0,.53,0,1,0,1.6a3.93,3.93,0,0,1,3.75-2c3.93,0,4.67,3,4.67,5.15v7.26h-2.87V491.1c0-1.8-.59-3.18-2.61-3.18s-2.74,1.38-2.74,3.07v6.64h-2.88Z"/><path class="cls-1" d="M911.08,492.57a3.3,3.3,0,0,0,3.49,3,3.11,3.11,0,0,0,2.89-1.62h3a6.75,6.75,0,0,1-2.43,3,5.94,5.94,0,0,1-3.45,1.06,6.4,6.4,0,0,1,0-12.79,6.16,6.16,0,0,1,4.5,1.84,6.51,6.51,0,0,1,1.78,5.51Zm6.87-2.2a3.33,3.33,0,0,0-3.43-2.72,3.26,3.26,0,0,0-3.4,2.72Z"/><path class="cls-1" d="M929.29,488.84a1.47,1.47,0,0,0-2.9-.09c0,.77.9,1.18,2,1.51,1.93.53,4,1.1,4,3.69s-2,4.06-4.56,4.06c-1.87,0-4.39-1-4.61-3.89h2.87a1.68,1.68,0,0,0,1.78,1.56,1.51,1.51,0,0,0,1.65-1.4c0-1-.9-1.32-3.12-2.09-1.62-.5-2.94-1.4-3-3.13,0-2.37,2-3.84,4.32-3.84,1.63,0,4,.72,4.28,3.62Z"/><path class="cls-1" d="M943.42,485.59h2.7v1.76a5,5,0,0,1,4.26-2.13c4.21,0,6,3.57,6,6.49a6,6,0,0,1-6,6.3,4.71,4.71,0,0,1-4.11-2v5.82h-2.87Zm10.07,6a3.63,3.63,0,0,0-3.68-3.71,3.59,3.59,0,0,0-2.62,1.1,3.84,3.84,0,0,0-1,2.66,3.64,3.64,0,0,0,3.67,3.68,3.62,3.62,0,0,0,3.66-3.71Z"/><path class="cls-1" d="M972.12,497.63h-2.87V495.9a4.48,4.48,0,0,1-4.06,2.11c-3.86,0-6.12-3-6.12-6.41a6.09,6.09,0,0,1,6.12-6.38,4.5,4.5,0,0,1,4.06,2.13v-1.76h2.87Zm-10.18-6a3.61,3.61,0,0,0,3.66,3.66,3.41,3.41,0,0,0,3.21-1.93,4.35,4.35,0,0,0,.46-1.69,3.81,3.81,0,0,0-.33-1.69,3.54,3.54,0,0,0-3.36-2.13,3.63,3.63,0,0,0-3.64,3.76Z"/><path class="cls-1" d="M976.05,485.59h2.72v1.58a3.43,3.43,0,0,1,3.33-1.95v2.89H982c-2,0-3.05.95-3.05,3v6.49h-2.87Z"/><path class="cls-1" d="M996.67,497.63H993.8V495.9a4.48,4.48,0,0,1-4.06,2.11c-3.86,0-6.12-3-6.12-6.41a6.09,6.09,0,0,1,6.12-6.38,4.5,4.5,0,0,1,4.06,2.13v-1.76h2.87Zm-10.18-6a3.62,3.62,0,0,0,3.67,3.66,3.4,3.4,0,0,0,3.2-1.93,4,4,0,0,0,.46-1.69,3.81,3.81,0,0,0-.33-1.69,3.53,3.53,0,0,0-3.36-2.13,3.63,3.63,0,0,0-3.64,3.76Z"/><path class="cls-1" d="M1010.45,492.57a3.32,3.32,0,0,0,3.49,3,3.11,3.11,0,0,0,2.9-1.62h3a6.77,6.77,0,0,1-2.44,3,5.91,5.91,0,0,1-3.44,1.06,6.4,6.4,0,0,1,0-12.79,6.16,6.16,0,0,1,4.49,1.84,6.51,6.51,0,0,1,1.78,5.51Zm6.87-2.2a3.32,3.32,0,0,0-3.42-2.72,3.26,3.26,0,0,0-3.4,2.72Z"/><path class="cls-1" d="M1023.44,481.4h2.88v16.23h-2.88Z"/><path class="cls-1" d="M772.1,527V510.8h4.41l4.17,11.65,4.1-11.65h4.43V527h-3l.09-13-4.54,13h-2.15L775,514l.08,13Z"/><path class="cls-1" d="M795.4,522a3.3,3.3,0,0,0,3.49,3,3.1,3.1,0,0,0,2.89-1.62h3a6.77,6.77,0,0,1-2.44,3,5.91,5.91,0,0,1-3.44,1.06,6.4,6.4,0,0,1,0-12.79,6.16,6.16,0,0,1,4.5,1.84A6.51,6.51,0,0,1,805.1,522Zm6.87-2.2a3.33,3.33,0,0,0-3.43-2.72,3.27,3.27,0,0,0-3.4,2.72Z"/><path class="cls-1" d="M811.79,526.82c0,2.54-.39,4.6-4.06,4.73H807v-2.23h.41c1.45-.11,1.52-1.21,1.52-2.42V515h2.87Zm-2.87-16h2.87v2.57h-2.87Z"/><path class="cls-1" d="M815.32,521a6.45,6.45,0,1,1,6.45,6.41,6.26,6.26,0,0,1-6.45-6.41Zm2.88,0a3.57,3.57,0,1,0,3.57-3.7,3.57,3.57,0,0,0-3.57,3.7Z"/><path class="cls-1" d="M831.52,515h2.72v1.58a3.42,3.42,0,0,1,3.33-2v2.89h-.13c-2,0-3.05,1-3.05,3V527h-2.87Z"/><path class="cls-1" d="M852.14,527h-2.87V525.3a4.48,4.48,0,0,1-4.06,2.11c-3.86,0-6.12-3-6.12-6.41a6.09,6.09,0,0,1,6.12-6.38,4.5,4.5,0,0,1,4.06,2.13V515h2.87Zm-10.18-6a3.62,3.62,0,0,0,3.66,3.66,3.41,3.41,0,0,0,3.21-1.93,4.35,4.35,0,0,0,.46-1.69,3.81,3.81,0,0,0-.33-1.69,3.54,3.54,0,0,0-3.36-2.13,3.63,3.63,0,0,0-3.64,3.76Z"/><path class="cls-1" d="M856.09,515h2.7v1.51a4,4,0,0,1,3.51-1.88,3.87,3.87,0,0,1,3,1.23,5.61,5.61,0,0,1,.73,1.09,5.08,5.08,0,0,1,.87-1.14,4.74,4.74,0,0,1,6.28,0c1.1,1.14,1.32,2.13,1.32,4.61V527h-2.88v-6.49a4.08,4.08,0,0,0-.48-2.24,1.92,1.92,0,0,0-1.89-1,2.24,2.24,0,0,0-2.08,1.09,3.76,3.76,0,0,0-.42,2V527h-2.87v-6.6a4.38,4.38,0,0,0-.38-2,2.12,2.12,0,0,0-2-1.11,2.24,2.24,0,0,0-2.06,1.11,4.37,4.37,0,0,0-.46,2.09V527h-2.88Z"/><path class="cls-1" d="M878.34,510.8h2.88v2.57h-2.88Zm0,4.19h2.88v12h-2.88Z"/><path class="cls-1" d="M887.27,522a3.3,3.3,0,0,0,3.49,3,3.13,3.13,0,0,0,2.9-1.62h3a6.77,6.77,0,0,1-2.44,3,5.91,5.91,0,0,1-3.44,1.06,6.4,6.4,0,0,1,0-12.79,6.16,6.16,0,0,1,4.5,1.84A6.51,6.51,0,0,1,897,522Zm6.87-2.2a3.32,3.32,0,0,0-3.42-2.72,3.28,3.28,0,0,0-3.41,2.72Z"/><path class="cls-1" d="M900.26,515H903c0,.53,0,1,0,1.6a3.92,3.92,0,0,1,3.75-2c3.93,0,4.67,3,4.67,5.15V527h-2.87V520.5c0-1.8-.59-3.18-2.61-3.18s-2.75,1.38-2.75,3.07V527h-2.87Z"/><path class="cls-1" d="M916.06,517.21h-2V515h2V510.8h2.87V515H921v2.22h-2.07V527h-2.87Z"/><path class="cls-1" d="M922.6,521a6.45,6.45,0,1,1,6.45,6.41A6.26,6.26,0,0,1,922.6,521Zm2.87,0a3.57,3.57,0,1,0,3.58-3.7,3.57,3.57,0,0,0-3.58,3.7Z"/><path class="cls-1" d="M948,527h-3.55L951,510.8h2.88L960.31,527h-3.57l-1.19-3.18h-6.4Zm4.33-12.37L950,521.24h4.68Z"/><path class="cls-1" d="M963,515h2.69c0,.53,0,1,0,1.6a3.93,3.93,0,0,1,3.75-2c3.93,0,4.68,3,4.68,5.15V527h-2.88V520.5c0-1.8-.59-3.18-2.61-3.18s-2.74,1.38-2.74,3.07V527H963Z"/><path class="cls-1" d="M978,510.8h2.88v2.57H978Zm0,4.19h2.88v12H978Z"/><path class="cls-1" d="M984.83,515h2.69v1.51a4,4,0,0,1,3.51-1.88,3.9,3.9,0,0,1,3,1.23,5.55,5.55,0,0,1,.72,1.09,4.86,4.86,0,0,1,.88-1.14,4.72,4.72,0,0,1,6.27,0c1.1,1.14,1.32,2.13,1.32,4.61V527h-2.88v-6.49a4.08,4.08,0,0,0-.48-2.24,1.92,1.92,0,0,0-1.88-1,2.25,2.25,0,0,0-2.09,1.09,3.86,3.86,0,0,0-.42,2V527h-2.87v-6.6a4.51,4.51,0,0,0-.37-2,2.13,2.13,0,0,0-2-1.11,2.24,2.24,0,0,0-2.06,1.11,4.37,4.37,0,0,0-.46,2.09V527h-2.87Z"/><path class="cls-1" d="M1019.49,527h-2.87V525.3a4.48,4.48,0,0,1-4.06,2.11c-3.86,0-6.12-3-6.12-6.41a6.09,6.09,0,0,1,6.12-6.38,4.5,4.5,0,0,1,4.06,2.13V515h2.87Zm-10.18-6a3.62,3.62,0,0,0,3.67,3.66,3.4,3.4,0,0,0,3.2-1.93,4.18,4.18,0,0,0,.46-1.69,3.81,3.81,0,0,0-.33-1.69,3.53,3.53,0,0,0-3.36-2.13,3.63,3.63,0,0,0-3.64,3.76Z"/><path class="cls-1" d="M1023.44,510.8h2.88V527h-2.88Z"/><path class="cls-1" d="M739.49,556.43h-2.74V554.7a4.42,4.42,0,0,1-4.13,2.11c-3.7,0-6.1-2.9-6.1-6.41a6,6,0,0,1,6.06-6.38,4.71,4.71,0,0,1,4,1.93V540.2h2.87Zm-10.09-6a3.59,3.59,0,0,0,3.68,3.71,3.76,3.76,0,0,0,2.68-1.1,3.5,3.5,0,0,0,1-2.67,3.56,3.56,0,0,0-1.07-2.59,3.66,3.66,0,0,0-2.61-1.06,3.6,3.6,0,0,0-3.71,3.69Z"/><path class="cls-1" d="M745.59,551.37a3.3,3.3,0,0,0,3.49,3,3.13,3.13,0,0,0,2.9-1.62h3a6.77,6.77,0,0,1-2.44,3,5.91,5.91,0,0,1-3.44,1.06A6.4,6.4,0,0,1,749,544a6.16,6.16,0,0,1,4.5,1.84,6.51,6.51,0,0,1,1.78,5.51Zm6.87-2.2a3.32,3.32,0,0,0-3.42-2.72,3.26,3.26,0,0,0-3.4,2.72Z"/><path class="cls-1" d="M766.28,540.2h2.88v16.23h-2.88Z"/><path class="cls-1" d="M785.5,556.43h-2.87V554.7a4.48,4.48,0,0,1-4.06,2.11c-3.86,0-6.12-3-6.12-6.41a6.09,6.09,0,0,1,6.12-6.38,4.5,4.5,0,0,1,4.06,2.13v-1.76h2.87Zm-10.18-6a3.62,3.62,0,0,0,3.67,3.66,3.4,3.4,0,0,0,3.2-1.93,4.18,4.18,0,0,0,.46-1.69,3.81,3.81,0,0,0-.33-1.69,3.53,3.53,0,0,0-3.36-2.13,3.63,3.63,0,0,0-3.64,3.75Z"/><path class="cls-1" d="M809.4,545.18a5.51,5.51,0,0,0-1.21-1.34,4.87,4.87,0,0,0-3.11-1.07,5.56,5.56,0,0,0,0,11.1,5.32,5.32,0,0,0,3.22-1,4.25,4.25,0,0,0,1.67-2.46h-6.06v-2.63h9.83a9.58,9.58,0,0,1-.72,4.08,8.64,8.64,0,0,1-7.92,4.87,8.43,8.43,0,1,1,8-11.56Z"/><path class="cls-1" d="M829.41,556.43h-2.88V554.7a4.45,4.45,0,0,1-4,2.11c-3.87,0-6.13-3-6.13-6.41a6.1,6.1,0,0,1,6.13-6.38,4.47,4.47,0,0,1,4,2.13v-1.76h2.88Zm-10.18-6a3.61,3.61,0,0,0,3.66,3.66,3.42,3.42,0,0,0,3.21-1.93,4.35,4.35,0,0,0,.46-1.69,3.81,3.81,0,0,0-.33-1.69,3.55,3.55,0,0,0-3.36-2.13,3.62,3.62,0,0,0-3.64,3.75Z"/><path class="cls-1" d="M833.36,544.39h2.7c0,.53,0,1,0,1.6a3.92,3.92,0,0,1,3.75-2c3.93,0,4.67,3,4.67,5.15v7.26h-2.87V549.9c0-1.8-.59-3.18-2.61-3.18s-2.75,1.38-2.75,3.07v6.64h-2.87Z"/><path class="cls-1" d="M860.79,556.43h-2.88V554.7a4.48,4.48,0,0,1-4.06,2.11c-3.86,0-6.12-3-6.12-6.41a6.09,6.09,0,0,1,6.12-6.38,4.48,4.48,0,0,1,4.06,2.13v-1.76h2.88Zm-10.18-6a3.61,3.61,0,0,0,3.66,3.66,3.4,3.4,0,0,0,3.2-1.93,4,4,0,0,0,.46-1.69,3.66,3.66,0,0,0-3.68-3.82,3.62,3.62,0,0,0-3.64,3.75Z"/><path class="cls-1" d="M877.07,556.43h-2.75V554.7a4.39,4.39,0,0,1-4.12,2.11c-3.71,0-6.1-2.9-6.1-6.41a6,6,0,0,1,6.06-6.38,4.69,4.69,0,0,1,4,1.93V540.2h2.88Zm-10.09-6a3.59,3.59,0,0,0,3.68,3.71,3.78,3.78,0,0,0,2.68-1.1,3.8,3.8,0,0,0-.05-5.26,3.65,3.65,0,0,0-2.61-1.06,3.59,3.59,0,0,0-3.7,3.69Z"/><path class="cls-1" d="M883.17,551.37a3.3,3.3,0,0,0,3.49,3,3.11,3.11,0,0,0,2.89-1.62h3a6.75,6.75,0,0,1-2.43,3,5.91,5.91,0,0,1-3.45,1.06,6.4,6.4,0,0,1,0-12.79,6.16,6.16,0,0,1,4.5,1.84,6.51,6.51,0,0,1,1.78,5.51Zm6.87-2.2a3.33,3.33,0,0,0-3.43-2.72,3.26,3.26,0,0,0-3.4,2.72Z"/><path class="cls-1" d="M896.14,544.39h2.72V546a3.43,3.43,0,0,1,3.33-2v2.89h-.13c-2,0-3,1-3,3v6.49h-2.87Z"/><path class="cls-1" d="M909.43,538.36l1,2.08L905,543l-.85-1.74Zm-4.39,6h2.88v12H905Z"/><path class="cls-1" d="M924.26,556.43h-2.87V554.7a4.48,4.48,0,0,1-4.06,2.11c-3.86,0-6.12-3-6.12-6.41a6.09,6.09,0,0,1,6.12-6.38,4.49,4.49,0,0,1,4.06,2.13v-1.76h2.87Zm-10.18-6a3.62,3.62,0,0,0,3.67,3.66,3.4,3.4,0,0,0,3.2-1.93,4,4,0,0,0,.46-1.69,3.81,3.81,0,0,0-.33-1.69,3.53,3.53,0,0,0-3.35-2.13,3.63,3.63,0,0,0-3.65,3.75Z"/><path class="cls-1" d="M936.42,543.07h-3.51V540.2h10.27v2.87h-3.49v13.36h-3.27Z"/><path class="cls-1" d="M945,544.39h2.72V546a3.44,3.44,0,0,1,3.33-2v2.89h-.13c-2,0-3,1-3,3v6.49H945Z"/><path class="cls-1" d="M952.55,550.38a6.45,6.45,0,1,1,6.45,6.41,6.26,6.26,0,0,1-6.45-6.41Zm2.87,0a3.57,3.57,0,1,0,3.58-3.7,3.58,3.58,0,0,0-3.58,3.7Z"/><path class="cls-1" d="M968.76,544.39h2.7v1.76a5,5,0,0,1,4.26-2.13c4.21,0,6,3.57,6,6.49a6,6,0,0,1-6,6.3,4.67,4.67,0,0,1-4.1-2v5.82h-2.88Zm10.07,6a3.63,3.63,0,0,0-3.68-3.71,3.58,3.58,0,0,0-2.61,1.1,3.79,3.79,0,0,0-1,2.65,3.66,3.66,0,0,0,1,2.62,3.71,3.71,0,0,0,2.61,1.07,3.62,3.62,0,0,0,3.66-3.71Z"/><path class="cls-1" d="M985,540.2h2.88v2.57H985Zm0,4.19h2.88v12H985Z"/><path class="cls-1" d="M1003.83,552.05a6.44,6.44,0,1,1,0-3.18h-2.94a3.58,3.58,0,0,0-5.82-1.14,3.93,3.93,0,0,0-1,2.67,3.52,3.52,0,0,0,3.56,3.71,3.42,3.42,0,0,0,3.25-2.06Z"/><path class="cls-1" d="M1019.49,556.43h-2.87V554.7a4.48,4.48,0,0,1-4.06,2.11c-3.86,0-6.12-3-6.12-6.41a6.09,6.09,0,0,1,6.12-6.38,4.5,4.5,0,0,1,4.06,2.13v-1.76h2.87Zm-10.18-6a3.62,3.62,0,0,0,3.67,3.66,3.4,3.4,0,0,0,3.2-1.93,4.18,4.18,0,0,0,.46-1.69,3.81,3.81,0,0,0-.33-1.69,3.53,3.53,0,0,0-3.36-2.13,3.63,3.63,0,0,0-3.64,3.75Z"/><path class="cls-1" d="M1023.44,540.2h2.88v16.23h-2.88Z"/><path class="cls-2" d="M185.82,470.57h23.53V583.2H185.82Z"/><path class="cls-2" d="M600.17,468.44v20H579.26V583.2H555.72V488.41l-25.9,0-45.14,0c-18,0-36.27,13.7-36.27,38.21,0,25.41,18.44,38.81,36.27,38.81,8.92,0,16.47-2.59,22.22-6.85a33.65,33.65,0,0,0,11.48-14.95H465.05l-9-20.37h88.33c.3,7.47-.76,18.88-5,28.32C529,575,504.93,585.33,484.83,585.33c-33.4,0-58.94-26-58.94-58.75,0-33.64,26.6-58.14,59.24-58.14Z"/><path class="cls-2" d="M144.6,549.85c-4.45,6.19-13.76,15.54-29.79,15.54-22.26,0-37.59-18.11-37.59-38.67,0-19.93,14.69-38.35,37.44-38.35a36.14,36.14,0,0,1,29.76,15.56h26c-6.69-15.89-25.21-35.35-55.58-35.49-37,0-61.13,28.3-61.13,58.28,0,31.36,25.59,58.61,61.29,58.61,25.58,0,47.14-14.53,55.63-35.48Z"/><path class="cls-2" d="M388.11,470.56h-21.7L316.69,583.2h26.85l14.64-36.81h28.33l-8-22.14H365.93l10.25-26.9,10.54,26.9,8,22.14,14.92,36.81h27Z"/><polygon class="cls-2" points="338.48 470.56 338.48 516.17 317.67 563.85 317.6 501.34 287.12 583.2 272.36 583.2 241.72 501.34 241.63 583.2 220.99 583.2 220.99 470.56 251.26 470.56 279.88 550.68 308.06 470.56 338.48 470.56"/><polygon class="cls-2" points="129.56 609.12 129.56 621.38 118.21 621.38 118.21 632.73 105.95 632.73 105.95 621.38 94.6 621.38 94.6 609.12 105.95 609.12 105.95 597.77 118.21 597.77 118.21 609.12 129.56 609.12"/><polygon class="cls-2" points="171.11 462.04 166.48 459.5 161 469.53 151.17 464.15 156.65 454.13 152.01 451.59 166.79 447.27 171.11 462.04"/></svg>