<svg id="Layer_1" data-name="Layer 1" xmlns="http://www.w3.org/2000/svg" viewBox="0 0 1080 1080"><defs><style>.cls-1{fill:#fff;}.cls-2{fill:#d62b44;}.cls-3{fill:#e0193b;}</style></defs><path class="cls-1" d="M1039.51,459.81V594.18h-497V561.62c-13.95,25.48-41.14,34.69-61.09,34.69A69.35,69.35,0,0,1,444.63,586l3.54,8.22H399.66l-14.92-36.81h-23.3L346.8,594.18H304.52V580.05l0-23.31-13.94,37.44H262.17l-14.1-37.68,0,37.68H172.63V562.26c-9.86,17.35-27.44,29.34-48,32.93v5.31H136v31.86H124.62v11.35H92.76V632.36H81.41V600.5H92.76V594a70.16,70.16,0,0,1-32.1-18,67.13,67.13,0,0,1-20.17-48A67.93,67.93,0,0,1,60,480.64c13.23-13.43,31.48-20.83,51.4-20.83a73.59,73.59,0,0,1,25.7,4.6l2.84-5.2L123.14,450l46.91-13.73,7.51,25.65h77.22l21.64,60.59,21.3-60.59h47.17v26.62l11.74-26.62h34.54l22.74,52.75A66,66,0,0,1,433.08,479a69.67,69.67,0,0,1,48.67-19.2Z"/><path class="cls-2" d="M631.53,493.37a8.16,8.16,0,0,1-7.95,5.75,8.43,8.43,0,1,1,0-16.85,8.28,8.28,0,0,1,8,5.84h-3.45a5.05,5.05,0,0,0-4.54-3,5.56,5.56,0,0,0,0,11.1,5.11,5.11,0,0,0,4.52-2.87Z"/><path class="cls-2" d="M636.88,493.74a3.31,3.31,0,0,0,3.49,3,3.11,3.11,0,0,0,2.9-1.63h3a6.8,6.8,0,0,1-2.44,3,6,6,0,0,1-3.44,1.05,6.4,6.4,0,0,1-.05-12.79,6.13,6.13,0,0,1,4.5,1.85,6.5,6.5,0,0,1,1.78,5.5Zm6.87-2.19a3.32,3.32,0,0,0-3.42-2.72,3.26,3.26,0,0,0-3.4,2.72Z"/><path class="cls-2" d="M649.87,486.77h2.7c0,.52,0,1,0,1.6a3.94,3.94,0,0,1,3.75-2c3.93,0,4.67,3,4.67,5.16v7.26H658.1v-6.54c0-1.8-.59-3.18-2.61-3.18s-2.74,1.38-2.74,3.07v6.65h-2.88Z"/><path class="cls-2" d="M665.67,489h-2v-2.21h2v-4.19h2.87v4.19h2.07V489h-2.07v9.83h-2.87Z"/><path class="cls-2" d="M673.35,486.77h2.72v1.58a3.45,3.45,0,0,1,3.33-2v2.9h-.13c-2,0-3,.94-3,3v6.49h-2.87Z"/><path class="cls-2" d="M680.92,492.76a6.45,6.45,0,1,1,6.45,6.4,6.26,6.26,0,0,1-6.45-6.4Zm2.87,0a3.57,3.57,0,1,0,3.58-3.71,3.57,3.57,0,0,0-3.58,3.71Z"/><path class="cls-2" d="M717.17,498.81h-2.75v-1.73a4.39,4.39,0,0,1-4.12,2.1c-3.71,0-6.1-2.89-6.1-6.4a6,6,0,0,1,6.06-6.39,4.69,4.69,0,0,1,4,1.93v-5.74h2.88Zm-10.1-6a3.59,3.59,0,0,0,3.69,3.71,3.78,3.78,0,0,0,2.68-1.1,3.82,3.82,0,0,0-.05-5.27,3.7,3.7,0,0,0-2.61-1.05,3.6,3.6,0,0,0-3.71,3.69Z"/><path class="cls-2" d="M723.27,493.74a3.31,3.31,0,0,0,3.49,3,3.1,3.1,0,0,0,2.89-1.63h3a6.78,6.78,0,0,1-2.43,3,6,6,0,0,1-3.45,1.05,6.4,6.4,0,0,1,0-12.79,6.13,6.13,0,0,1,4.5,1.85,6.5,6.5,0,0,1,1.78,5.5Zm6.87-2.19a3.33,3.33,0,0,0-3.43-2.72,3.26,3.26,0,0,0-3.4,2.72Z"/><path class="cls-2" d="M744.07,482.58h3.27v16.23h-3.27Z"/><path class="cls-2" d="M751.38,486.77h2.69c0,.52,0,1,0,1.6a3.94,3.94,0,0,1,3.75-2c3.93,0,4.68,3,4.68,5.16v7.26H759.6v-6.54c0-1.8-.59-3.18-2.61-3.18s-2.74,1.38-2.74,3.07v6.65h-2.87Z"/><path class="cls-2" d="M771.69,498.81h-2.81l-4.47-12h3l2.9,8.42,2.9-8.42h3Z"/><path class="cls-2" d="M780.45,493.74a3.31,3.31,0,0,0,3.49,3,3.1,3.1,0,0,0,2.89-1.63h3a6.86,6.86,0,0,1-2.44,3,6,6,0,0,1-3.44,1.05,6.4,6.4,0,0,1,0-12.79,6.13,6.13,0,0,1,4.5,1.85,6.5,6.5,0,0,1,1.78,5.5Zm6.87-2.19a3.33,3.33,0,0,0-3.43-2.72,3.27,3.27,0,0,0-3.4,2.72Z"/><path class="cls-2" d="M798.66,490c0-.63-.35-1.29-1.47-1.29a1.27,1.27,0,0,0-1.43,1.21c0,.76.9,1.18,2,1.51,1.94.53,4,1.1,4,3.69s-2,4.05-4.56,4.05c-1.87,0-4.39-1-4.61-3.88h2.87a1.68,1.68,0,0,0,1.78,1.56,1.51,1.51,0,0,0,1.65-1.41c0-1-.9-1.31-3.12-2.08-1.62-.5-2.94-1.4-3-3.14,0-2.37,2-3.84,4.32-3.84,1.63,0,4,.73,4.28,3.62Z"/><path class="cls-2" d="M805.88,489h-2v-2.21h2v-4.19h2.87v4.19h2.07V489h-2.07v9.83h-2.87Z"/><path class="cls-2" d="M813.58,482.58h2.88v2.56h-2.88Zm0,4.19h2.88v12h-2.88Z"/><path class="cls-2" d="M832.69,497.39a6.72,6.72,0,0,1-1.12,4.25,6.9,6.9,0,0,1-5.53,2.48c-3.75,0-5.55-2.24-6-4.1h3.34a2.71,2.71,0,0,0,1.25,1.23,3.41,3.41,0,0,0,1.58.41,3.48,3.48,0,0,0,3.57-3.62v-1a4.27,4.27,0,0,1-3.9,2.15,6.38,6.38,0,0,1,0-12.76,4.44,4.44,0,0,1,3.9,2v-1.62h2.9Zm-10.07-4.61a3.56,3.56,0,0,0,3.6,3.71,3.45,3.45,0,0,0,2.57-1,3.72,3.72,0,0,0,1-2.56,4.08,4.08,0,0,0-.88-2.59,3.32,3.32,0,0,0-2.72-1.21,3.58,3.58,0,0,0-3.6,3.67Z"/><path class="cls-2" d="M849,498.81h-2.87v-1.73a4.49,4.49,0,0,1-4.06,2.1c-3.86,0-6.12-3-6.12-6.4a6.09,6.09,0,0,1,6.12-6.39,4.52,4.52,0,0,1,4.06,2.13v-1.75H849Zm-10.18-6a3.62,3.62,0,0,0,3.67,3.67,3.42,3.42,0,0,0,3.2-1.93,4,4,0,0,0,.46-1.69,3.81,3.81,0,0,0-.33-1.69,3.53,3.53,0,0,0-3.35-2.13,3.63,3.63,0,0,0-3.65,3.75Z"/><path class="cls-2" d="M864.92,494.42a6.44,6.44,0,1,1,0-3.18H862a3.37,3.37,0,0,0-3.24-2.17,3.41,3.41,0,0,0-2.57,1,4,4,0,0,0-1,2.68,3.52,3.52,0,0,0,3.56,3.71,3.39,3.39,0,0,0,3.24-2.07Z"/><path class="cls-2" d="M868.17,482.58h2.88v2.56h-2.88Zm0,4.19h2.88v12h-2.88Z"/><path class="cls-2" d="M874.34,492.76a6.45,6.45,0,1,1,6.45,6.4,6.26,6.26,0,0,1-6.45-6.4Zm2.87,0a3.57,3.57,0,1,0,3.58-3.71,3.56,3.56,0,0,0-3.58,3.71Z"/><path class="cls-2" d="M890.55,486.77h2.7c0,.52,0,1,0,1.6a3.94,3.94,0,0,1,3.75-2c3.93,0,4.67,3,4.67,5.16v7.26h-2.87v-6.54c0-1.8-.59-3.18-2.61-3.18s-2.74,1.38-2.74,3.07v6.65h-2.88Z"/><path class="cls-2" d="M907.69,493.74a3.31,3.31,0,0,0,3.49,3,3.09,3.09,0,0,0,2.89-1.63h3a6.8,6.8,0,0,1-2.44,3,6,6,0,0,1-3.44,1.05,6.4,6.4,0,0,1,0-12.79,6.13,6.13,0,0,1,4.5,1.85,6.5,6.5,0,0,1,1.78,5.5Zm6.87-2.19a3.33,3.33,0,0,0-3.43-2.72,3.27,3.27,0,0,0-3.4,2.72Z"/><path class="cls-2" d="M925.9,490c0-.63-.35-1.29-1.47-1.29a1.26,1.26,0,0,0-1.42,1.21c0,.76.9,1.18,2,1.51,1.93.53,4,1.1,4,3.69s-2,4.05-4.56,4.05c-1.87,0-4.39-1-4.61-3.88h2.88a1.67,1.67,0,0,0,1.77,1.56,1.51,1.51,0,0,0,1.65-1.41c0-1-.9-1.31-3.12-2.08-1.62-.5-2.94-1.4-3-3.14,0-2.37,2-3.84,4.32-3.84,1.63,0,4,.73,4.28,3.62Z"/><path class="cls-2" d="M940,486.77h2.7v1.75a5,5,0,0,1,4.26-2.13c4.21,0,6,3.58,6,6.5a6,6,0,0,1-6,6.29,4.67,4.67,0,0,1-4.1-2V503H940Zm10.07,6a3.63,3.63,0,0,0-3.68-3.71,3.55,3.55,0,0,0-2.61,1.1,3.79,3.79,0,0,0-1,2.65,3.66,3.66,0,1,0,7.32,0Z"/><path class="cls-2" d="M968.73,498.81h-2.87v-1.73a4.49,4.49,0,0,1-4.06,2.1c-3.86,0-6.12-3-6.12-6.4a6.09,6.09,0,0,1,6.12-6.39,4.52,4.52,0,0,1,4.06,2.13v-1.75h2.87Zm-10.18-6a3.62,3.62,0,0,0,3.67,3.67,3.42,3.42,0,0,0,3.2-1.93,4.18,4.18,0,0,0,.46-1.69,3.81,3.81,0,0,0-.33-1.69,3.53,3.53,0,0,0-3.36-2.13,3.63,3.63,0,0,0-3.64,3.75Z"/><path class="cls-2" d="M972.66,486.77h2.72v1.58a3.46,3.46,0,0,1,3.34-2v2.9h-.14c-2,0-3.05.94-3.05,3v6.49h-2.87Z"/><path class="cls-2" d="M993.28,498.81h-2.87v-1.73a4.49,4.49,0,0,1-4.06,2.1c-3.86,0-6.12-3-6.12-6.4a6.09,6.09,0,0,1,6.12-6.39,4.51,4.51,0,0,1,4.06,2.13v-1.75h2.87Zm-10.17-6a3.61,3.61,0,0,0,3.66,3.67,3.42,3.42,0,0,0,3.2-1.93,4,4,0,0,0,.46-1.69,3.68,3.68,0,0,0-.33-1.69,3.53,3.53,0,0,0-3.35-2.13,3.62,3.62,0,0,0-3.64,3.75Z"/><path class="cls-2" d="M1007.07,493.74a3.31,3.31,0,0,0,3.48,3,3.1,3.1,0,0,0,2.9-1.63h3a6.78,6.78,0,0,1-2.43,3,6,6,0,0,1-3.45,1.05,6.4,6.4,0,0,1,0-12.79,6.13,6.13,0,0,1,4.5,1.85,6.52,6.52,0,0,1,1.77,5.5Zm6.86-2.19a3.31,3.31,0,0,0-3.42-2.72,3.26,3.26,0,0,0-3.4,2.72Z"/><path class="cls-2" d="M1020.06,482.58h2.87v16.23h-2.87Z"/><path class="cls-2" d="M768.71,528.21V512h4.41l4.17,11.65,4.1-11.65h4.43v16.23h-3l.09-13-4.54,13h-2.15l-4.56-13,.08,13Z"/><path class="cls-2" d="M792,523.14a3.31,3.31,0,0,0,3.49,3,3.11,3.11,0,0,0,2.9-1.63h3a6.8,6.8,0,0,1-2.44,3,6,6,0,0,1-3.44,1.05,6.4,6.4,0,0,1-.05-12.79,6.13,6.13,0,0,1,4.5,1.85,6.5,6.5,0,0,1,1.78,5.5Zm6.87-2.19a3.32,3.32,0,0,0-3.42-2.72,3.28,3.28,0,0,0-3.41,2.72Z"/><path class="cls-2" d="M808.4,528c0,2.55-.39,4.61-4.06,4.74h-.74v-2.24H804c1.45-.11,1.52-1.2,1.52-2.41V516.17h2.87Zm-2.87-16h2.87v2.56h-2.87Z"/><path class="cls-2" d="M811.94,522.16a6.45,6.45,0,1,1,6.45,6.4,6.26,6.26,0,0,1-6.45-6.4Zm2.87,0a3.57,3.57,0,1,0,3.58-3.71,3.56,3.56,0,0,0-3.58,3.71Z"/><path class="cls-2" d="M828.13,516.17h2.72v1.58a3.45,3.45,0,0,1,3.33-2v2.9h-.13c-2,0-3,.94-3,3v6.49h-2.87Z"/><path class="cls-2" d="M848.75,528.21h-2.87v-1.73a4.49,4.49,0,0,1-4.06,2.1c-3.86,0-6.12-3-6.12-6.4a6.09,6.09,0,0,1,6.12-6.39,4.52,4.52,0,0,1,4.06,2.13v-1.75h2.87Zm-10.18-6a3.62,3.62,0,0,0,3.67,3.67,3.42,3.42,0,0,0,3.2-1.93,4.18,4.18,0,0,0,.46-1.69,3.81,3.81,0,0,0-.33-1.69,3.53,3.53,0,0,0-3.36-2.13,3.63,3.63,0,0,0-3.64,3.75Z"/><path class="cls-2" d="M852.7,516.17h2.7v1.51a4,4,0,0,1,3.51-1.89,3.91,3.91,0,0,1,3,1.23,5.67,5.67,0,0,1,.73,1.1,4.86,4.86,0,0,1,.88-1.14,4.69,4.69,0,0,1,6.27,0c1.1,1.14,1.32,2.13,1.32,4.61v6.6h-2.88v-6.49a4.08,4.08,0,0,0-.48-2.24,1.93,1.93,0,0,0-1.89-1,2.24,2.24,0,0,0-2.08,1.1,3.84,3.84,0,0,0-.42,2v6.6h-2.87v-6.6a4.51,4.51,0,0,0-.37-2,2.15,2.15,0,0,0-2-1.12,2.25,2.25,0,0,0-2.06,1.12,4.34,4.34,0,0,0-.46,2.09v6.51H852.7Z"/><path class="cls-2" d="M875,512h2.88v2.56H875Zm0,4.19h2.88v12H875Z"/><path class="cls-2" d="M883.88,523.14a3.32,3.32,0,0,0,3.49,3,3.1,3.1,0,0,0,2.9-1.63h3a6.8,6.8,0,0,1-2.44,3,6,6,0,0,1-3.44,1.05,6.4,6.4,0,0,1,0-12.79,6.13,6.13,0,0,1,4.49,1.85,6.5,6.5,0,0,1,1.78,5.5Zm6.87-2.19a3.32,3.32,0,0,0-3.42-2.72,3.26,3.26,0,0,0-3.4,2.72Z"/><path class="cls-2" d="M896.87,516.17h2.7c0,.52,0,1,0,1.6a3.94,3.94,0,0,1,3.75-2c3.93,0,4.67,3,4.67,5.16v7.26H905.1v-6.54c0-1.8-.59-3.18-2.61-3.18s-2.74,1.38-2.74,3.07v6.65h-2.88Z"/><path class="cls-2" d="M912.67,518.38h-2v-2.21h2V512h2.87v4.19h2.07v2.21h-2.07v9.83h-2.87Z"/><path class="cls-2" d="M919.21,522.16a6.45,6.45,0,1,1,6.45,6.4,6.26,6.26,0,0,1-6.45-6.4Zm2.87,0a3.57,3.57,0,1,0,3.58-3.71,3.57,3.57,0,0,0-3.58,3.71Z"/><path class="cls-2" d="M944.6,528.21H941L947.62,512h2.88l6.43,16.23h-3.58L952.16,525h-6.4Zm4.32-12.37-2.31,6.58h4.68Z"/><path class="cls-2" d="M959.63,516.17h2.7c0,.52,0,1,0,1.6a4,4,0,0,1,3.76-2c3.92,0,4.67,3,4.67,5.16v7.26h-2.88v-6.54c0-1.8-.59-3.18-2.61-3.18s-2.74,1.38-2.74,3.07v6.65h-2.87Z"/><path class="cls-2" d="M974.64,512h2.87v2.56h-2.87Zm0,4.19h2.87v12h-2.87Z"/><path class="cls-2" d="M981.44,516.17h2.7v1.51a4.19,4.19,0,0,1,6.47-.66,5.61,5.61,0,0,1,.72,1.1,4.86,4.86,0,0,1,.88-1.14,4.69,4.69,0,0,1,6.27,0c1.1,1.14,1.32,2.13,1.32,4.61v6.6h-2.87v-6.49a4.08,4.08,0,0,0-.49-2.24,1.9,1.9,0,0,0-1.88-1,2.27,2.27,0,0,0-2.09,1.1,3.83,3.83,0,0,0-.41,2v6.6h-2.88v-6.6a4.38,4.38,0,0,0-.37-2,2.13,2.13,0,0,0-2-1.12,2.25,2.25,0,0,0-2.06,1.12,4.34,4.34,0,0,0-.46,2.09v6.51h-2.87Z"/><path class="cls-2" d="M1016.1,528.21h-2.87v-1.73a4.49,4.49,0,0,1-4.06,2.1c-3.86,0-6.12-3-6.12-6.4a6.09,6.09,0,0,1,6.12-6.39,4.52,4.52,0,0,1,4.06,2.13v-1.75h2.87Zm-10.18-6a3.62,3.62,0,0,0,3.67,3.67,3.42,3.42,0,0,0,3.2-1.93,4,4,0,0,0,.46-1.69,3.81,3.81,0,0,0-.33-1.69,3.53,3.53,0,0,0-3.35-2.13,3.63,3.63,0,0,0-3.65,3.75Z"/><path class="cls-2" d="M1020.06,512h2.87v16.23h-2.87Z"/><path class="cls-2" d="M736.1,557.61h-2.74v-1.73a4.42,4.42,0,0,1-4.13,2.1c-3.7,0-6.09-2.89-6.09-6.4a6,6,0,0,1,6.05-6.39,4.69,4.69,0,0,1,4,1.94v-5.75h2.87Zm-10.09-6a3.59,3.59,0,0,0,3.69,3.71,3.75,3.75,0,0,0,2.67-1.1,3.51,3.51,0,0,0,1-2.68,3.56,3.56,0,0,0-1.07-2.59,3.7,3.7,0,0,0-2.61-1,3.6,3.6,0,0,0-3.71,3.69Z"/><path class="cls-2" d="M742.2,552.54a3.32,3.32,0,0,0,3.49,3,3.1,3.1,0,0,0,2.9-1.63h3a6.8,6.8,0,0,1-2.44,3,6,6,0,0,1-3.44,1.05,6.4,6.4,0,0,1,0-12.79,6.11,6.11,0,0,1,4.49,1.85,6.5,6.5,0,0,1,1.78,5.5Zm6.87-2.19a3.32,3.32,0,0,0-3.42-2.72,3.26,3.26,0,0,0-3.4,2.72Z"/><path class="cls-2" d="M762.89,541.38h2.88v16.23h-2.88Z"/><path class="cls-2" d="M782.11,557.61h-2.87v-1.73a4.49,4.49,0,0,1-4.06,2.1c-3.86,0-6.12-3-6.12-6.4a6.09,6.09,0,0,1,6.12-6.39,4.51,4.51,0,0,1,4.06,2.13v-1.75h2.87Zm-10.18-6a3.62,3.62,0,0,0,3.67,3.67,3.4,3.4,0,0,0,3.2-1.93,4,4,0,0,0,.46-1.69,3.81,3.81,0,0,0-.33-1.69,3.53,3.53,0,0,0-3.35-2.13,3.63,3.63,0,0,0-3.65,3.75Z"/><path class="cls-2" d="M806,546.36A5.15,5.15,0,0,0,804.8,545a4.88,4.88,0,0,0-3.11-1.08,5.56,5.56,0,0,0,0,11.11,5.38,5.38,0,0,0,3.22-1,4.29,4.29,0,0,0,1.67-2.46h-6.06V549h9.83a9.61,9.61,0,0,1-.72,4.08,8.63,8.63,0,0,1-7.92,4.87,8.43,8.43,0,1,1,8-11.56Z"/><path class="cls-2" d="M826,557.61h-2.87v-1.73a4.49,4.49,0,0,1-4.06,2.1c-3.86,0-6.12-3-6.12-6.4a6.09,6.09,0,0,1,6.12-6.39,4.52,4.52,0,0,1,4.06,2.13v-1.75H826Zm-10.18-6a3.62,3.62,0,0,0,3.66,3.67,3.41,3.41,0,0,0,3.21-1.93,4.35,4.35,0,0,0,.46-1.69,3.81,3.81,0,0,0-.33-1.69,3.54,3.54,0,0,0-3.36-2.13,3.63,3.63,0,0,0-3.64,3.75Z"/><path class="cls-2" d="M830,545.57h2.7c0,.52,0,1,0,1.6a3.94,3.94,0,0,1,3.75-2c3.93,0,4.67,3,4.67,5.16v7.26H838.2v-6.54c0-1.8-.59-3.18-2.61-3.18s-2.74,1.38-2.74,3.07v6.65H830Z"/><path class="cls-2" d="M857.4,557.61h-2.88v-1.73a4.48,4.48,0,0,1-4.06,2.1c-3.86,0-6.12-3-6.12-6.4a6.1,6.1,0,0,1,6.12-6.39,4.5,4.5,0,0,1,4.06,2.13v-1.75h2.88Zm-10.18-6a3.61,3.61,0,0,0,3.66,3.67,3.39,3.39,0,0,0,3.2-1.93,4.19,4.19,0,0,0,.47-1.69,3.81,3.81,0,0,0-.33-1.69,3.55,3.55,0,0,0-3.36-2.13,3.62,3.62,0,0,0-3.64,3.75Z"/><path class="cls-2" d="M873.68,557.61h-2.74v-1.73a4.42,4.42,0,0,1-4.13,2.1c-3.71,0-6.1-2.89-6.1-6.4a6,6,0,0,1,6.06-6.39,4.65,4.65,0,0,1,4,1.94v-5.75h2.88Zm-10.09-6a3.59,3.59,0,0,0,3.68,3.71,3.76,3.76,0,0,0,2.68-1.1,3.55,3.55,0,0,0,1-2.68,3.59,3.59,0,0,0-1.07-2.59,3.7,3.7,0,0,0-2.62-1,3.6,3.6,0,0,0-3.7,3.69Z"/><path class="cls-2" d="M879.78,552.54a3.31,3.31,0,0,0,3.49,3,3.09,3.09,0,0,0,2.89-1.63h3a6.8,6.8,0,0,1-2.44,3,6,6,0,0,1-3.44,1.05,6.4,6.4,0,0,1,0-12.79,6.13,6.13,0,0,1,4.5,1.85,6.5,6.5,0,0,1,1.78,5.5Zm6.87-2.19a3.33,3.33,0,0,0-3.43-2.72,3.27,3.27,0,0,0-3.4,2.72Z"/><path class="cls-2" d="M892.75,545.57h2.72v1.58a3.44,3.44,0,0,1,3.33-2v2.9h-.13c-2,0-3,.94-3,3v6.49h-2.87Z"/><path class="cls-2" d="M906,539.53l1,2.09-5.36,2.54-.85-1.73Zm-4.38,6h2.87v12h-2.87Z"/><path class="cls-2" d="M920.88,557.61H918v-1.73a4.49,4.49,0,0,1-4.06,2.1c-3.86,0-6.12-3-6.12-6.4a6.09,6.09,0,0,1,6.12-6.39,4.5,4.5,0,0,1,4.06,2.13v-1.75h2.88Zm-10.18-6a3.61,3.61,0,0,0,3.66,3.67,3.4,3.4,0,0,0,3.2-1.93,4,4,0,0,0,.46-1.69,3.66,3.66,0,0,0-3.68-3.82,3.62,3.62,0,0,0-3.64,3.75Z"/><path class="cls-2" d="M933,544.25h-3.51v-2.87h10.27v2.87H936.3v13.36H933Z"/><path class="cls-2" d="M941.59,545.57h2.72v1.58a3.46,3.46,0,0,1,3.34-2v2.9h-.14c-2,0-3,.94-3,3v6.49h-2.87Z"/><path class="cls-2" d="M949.16,551.56a6.45,6.45,0,1,1,6.45,6.4,6.26,6.26,0,0,1-6.45-6.4Zm2.88,0a3.56,3.56,0,1,0,3.57-3.71A3.56,3.56,0,0,0,952,551.6Z"/><path class="cls-2" d="M965.38,545.57h2.69v1.75a5,5,0,0,1,4.26-2.13c4.21,0,6,3.58,6,6.5a6,6,0,0,1-6,6.29,4.67,4.67,0,0,1-4.1-2v5.81h-2.87Zm10.07,6a3.64,3.64,0,0,0-3.69-3.71,3.58,3.58,0,0,0-2.61,1.1,3.79,3.79,0,0,0-1,2.65,3.64,3.64,0,0,0,1,2.61,3.68,3.68,0,0,0,2.61,1.08,3.62,3.62,0,0,0,3.67-3.71Z"/><path class="cls-2" d="M981.66,541.38h2.87v2.56h-2.87Zm0,4.19h2.87v12h-2.87Z"/><path class="cls-2" d="M1000.44,553.22a6.44,6.44,0,1,1,0-3.18H997.5a3.39,3.39,0,0,0-3.25-2.17,3.44,3.44,0,0,0-2.57,1,4,4,0,0,0-1,2.68,3.51,3.51,0,0,0,3.55,3.71,3.42,3.42,0,0,0,3.25-2.07Z"/><path class="cls-2" d="M1016.1,557.61h-2.87v-1.73a4.49,4.49,0,0,1-4.06,2.1c-3.86,0-6.12-3-6.12-6.4a6.09,6.09,0,0,1,6.12-6.39,4.52,4.52,0,0,1,4.06,2.13v-1.75h2.87Zm-10.18-6a3.62,3.62,0,0,0,3.67,3.67,3.4,3.4,0,0,0,3.2-1.93,4,4,0,0,0,.46-1.69,3.81,3.81,0,0,0-.33-1.69,3.53,3.53,0,0,0-3.35-2.13,3.63,3.63,0,0,0-3.65,3.75Z"/><path class="cls-2" d="M1020.06,541.38h2.87v16.23h-2.87Z"/><path class="cls-3" d="M182.43,471.74H206V584.37H182.43Z"/><path class="cls-3" d="M596.78,469.61v20H575.87v94.8H552.33v-94.8h-25.9l-45.14,0c-18,0-36.27,13.7-36.27,38.2,0,25.42,18.44,38.81,36.27,38.81,8.92,0,16.47-2.58,22.22-6.84a33.8,33.8,0,0,0,11.49-15H461.66l-9-20.37H541c.3,7.46-.76,18.88-5,28.32-10.43,23.43-34.46,33.79-54.56,33.79-33.4,0-58.94-26-58.94-58.76,0-33.63,26.61-58.14,59.25-58.14Z"/><path class="cls-3" d="M141.21,551c-4.45,6.2-13.75,15.54-29.79,15.54-22.26,0-37.59-18.11-37.59-38.66,0-19.93,14.69-38.35,37.44-38.35A36.11,36.11,0,0,1,141,505.1h26c-6.7-15.88-25.22-35.35-55.59-35.49-36.95,0-61.13,28.31-61.13,58.29,0,31.36,25.6,58.61,61.3,58.61,25.57,0,47.13-14.54,55.62-35.49Z"/><path class="cls-3" d="M384.72,471.74H363L313.31,584.38h26.84l14.64-36.82h28.33l-8-22.13H362.54l10.25-26.9,10.54,26.9,8,22.13,14.93,36.82h27Z"/><polygon class="cls-3" points="335.09 471.74 335.09 517.35 314.29 565.03 314.21 502.52 283.73 584.38 268.97 584.38 238.34 502.52 238.24 584.38 217.6 584.38 217.6 471.74 247.88 471.74 276.49 551.86 304.67 471.74 335.09 471.74"/><polygon class="cls-3" points="126.17 610.3 126.17 622.56 114.82 622.56 114.82 633.91 102.56 633.91 102.56 622.56 91.21 622.56 91.21 610.3 102.56 610.3 102.56 598.95 114.82 598.95 114.82 610.3 126.17 610.3"/><polygon class="cls-3" points="167.73 463.21 163.09 460.68 157.61 470.7 147.78 465.33 153.26 455.31 148.62 452.77 163.4 448.44 167.73 463.21"/></svg>